<svg width="215" height="38" viewBox="0 0 215 38" fill="none" xmlns="http://www.w3.org/2000/svg">
<path d="M2.92999 3.18018V30.2702L8.94999 29.5702V3.18018H2.92999Z" fill="white"/>
<path d="M2.92999 33.9498H8.94999V29.5698L2.92999 30.2698V33.9498Z" fill="#D7D7D7"/>
<path d="M14.93 33.9499H31.16V28.1899H20.96L14.93 28.8899V33.9499Z" fill="#D7D7D7"/>
<path d="M20.95 3.18018H14.93V28.8902L20.96 28.1902H20.95V3.18018Z" fill="white"/>
<path d="M34.74 3.18018V26.6002L40.76 25.9102V3.18018H34.74Z" fill="white"/>
<path d="M34.74 33.9502H50.98V28.1902H40.76V25.9102L34.74 26.6002V33.9502Z" fill="#D7D7D7"/>
<path d="M68.74 24.0002C68.74 27.4002 66.65 28.6702 64.42 28.6702C62.06 28.6702 60.14 27.4002 60.14 24.0002V23.6802L54.14 24.3702C54.39 30.6102 58.53 34.3902 64.42 34.3902C70.31 34.3902 74.76 30.3302 74.76 23.7802V21.9902L68.74 22.6802V23.9902V24.0002Z" fill="#D7D7D7"/>
<path d="M68.74 3.18018V22.6902L74.76 22.0002V3.18018H68.74Z" fill="white"/>
<path d="M60.14 3.18018H54.12V23.7802C54.12 23.9802 54.14 24.1702 54.14 24.3702L60.14 23.6802V3.18018Z" fill="white"/>
<path d="M90.56 16.0599C87.51 15.0999 84.89 14.2699 84.89 11.6499C84.89 9.33986 86.33 8.10986 88.91 8.10986C91.49 8.10986 93.1 9.63986 93.1 12.9099H99.04C99.04 6.57986 94.94 2.60986 89 2.60986C83.06 2.60986 78.88 6.00986 78.88 11.6399C78.88 17.2699 83.04 19.2599 86.92 20.5899L97.31 19.3899C95.54 17.5999 92.93 16.7799 90.58 16.0499H90.56V16.0599Z" fill="white"/>
<path d="M87.42 20.7702C90.61 21.7702 93.4 22.6002 93.4 25.1802C93.4 27.7602 91.52 28.8902 88.99 28.8902C86.33 28.8902 84.49 27.4102 84.49 23.8302H78.47C78.47 30.4202 82.75 34.4802 88.99 34.4802C95.23 34.4802 99.42 30.9902 99.42 25.1402C99.42 22.4902 98.57 20.7002 97.3 19.4102L86.91 20.6102C87.08 20.6702 87.25 20.7302 87.42 20.7802V20.7702Z" fill="#D7D7D7"/>
<path d="M120.58 8.99018V3.18018H101.73V8.99018H108.15V18.1502L114.17 17.4602V8.99018H120.58Z" fill="white"/>
<path d="M108.15 33.95H114.17V17.46L108.15 18.15V33.95Z" fill="#D7D7D7"/>
<path d="M133.68 3.18018H123.9V16.3302L129.92 15.6402V8.94018H132.93C135.64 8.94018 137.99 9.99018 137.99 14.2202V14.7102L143.96 14.0202C143.85 7.05018 139.74 3.18018 133.67 3.18018H133.68Z" fill="white"/>
<path d="M138 15.1C138 19.16 135.56 20.29 132.94 20.29H129.93V15.64L123.91 16.33V33.94H129.93V26H133.07L137.22 33.94H143.81L138.62 24.6C141.94 23.12 143.99 19.93 143.99 15.17V14.3C143.99 14.2 143.99 14.11 143.99 14.02L138.02 14.71V15.09L138 15.1Z" fill="#D7D7D7"/>
<path d="M161.61 22.6902H155.19L157.98 12.4102L152.24 13.0802L146.11 33.9502H152.22L153.92 27.8902H162.87L164.49 33.9502H170.64L164.2 11.7002L158.9 12.3102L161.61 22.6902Z" fill="#D7D7D7"/>
<path d="M155.15 3.18018L152.24 13.0802L157.98 12.4102L158.46 10.6502L158.9 12.3102L164.2 11.7002L161.74 3.18018H155.15Z" fill="white"/>
<path d="M176.05 33.9501H182.07V9.64014L176.05 10.3301V33.9501Z" fill="#D7D7D7"/>
<path d="M188.49 8.9899V8.8999L187.74 8.9899H188.49Z" fill="black"/>
<path d="M169.64 3.18018V8.99018H176.05V10.3302L182.07 9.64018V8.99018H187.74L188.49 8.90018V3.18018H169.64Z" fill="white"/>
<path d="M202.37 3.18018H195.78L194.29 8.23018L203.52 7.17018L202.37 3.18018Z" fill="white"/>
<path d="M203.52 7.16992L194.29 8.22992L186.74 33.9499H192.85L194.55 27.8799H203.5L205.12 33.9499H211.27L203.52 7.16992ZM195.82 22.6899L199.09 10.6399L202.23 22.6899H195.81H195.82Z" fill="#D7D7D7"/>
</svg>
