<svg width="215" height="38" viewBox="0 0 215 38" fill="none" xmlns="http://www.w3.org/2000/svg">
<path d="M2.93 3.59988V30.6899L8.95 29.9899V3.59988H2.93Z" fill="#284064"/>
<path d="M2.93 34.3699H8.95V29.9899L2.93 30.6899V34.3699Z" fill="#567BB0"/>
<path d="M14.93 34.3699H31.16V28.6099H20.96L14.93 29.3099V34.3699Z" fill="#567BB0"/>
<path d="M20.95 3.59988H14.93V29.3099L20.96 28.6099H20.95V3.59988Z" fill="#284064"/>
<path d="M34.74 3.59988V27.0199L40.76 26.3299V3.59988H34.74Z" fill="#284064"/>
<path d="M34.74 34.3699H50.98V28.6099H40.76V26.3299L34.74 27.0199V34.3699Z" fill="#567BB0"/>
<path d="M68.74 24.4199C68.74 27.8199 66.65 29.0899 64.42 29.0899C62.06 29.0899 60.14 27.8199 60.14 24.4199V24.0999L54.14 24.7899C54.39 31.0299 58.53 34.8099 64.42 34.8099C70.31 34.8099 74.76 30.7499 74.76 24.1999V22.4099L68.74 23.0999V24.4099V24.4199Z" fill="#567BB0"/>
<path d="M68.74 3.59988V23.1099L74.76 22.4199V3.59988H68.74Z" fill="#284064"/>
<path d="M60.14 3.59988H54.12V24.1999C54.12 24.3999 54.14 24.5899 54.14 24.7899L60.14 24.0999V3.59988Z" fill="#284064"/>
<path d="M90.56 16.4799C87.51 15.5199 84.89 14.6899 84.89 12.0699C84.89 9.75988 86.33 8.52988 88.91 8.52988C91.49 8.52988 93.1 10.0599 93.1 13.3299H99.04C99.04 6.99988 94.94 3.02988 89 3.02988C83.06 3.02988 78.88 6.42988 78.88 12.0599C78.88 17.6899 83.04 19.6799 86.92 21.0099L97.31 19.8099C95.54 18.0199 92.93 17.1999 90.58 16.4699H90.56V16.4799Z" fill="#284064"/>
<path d="M87.42 21.1899C90.61 22.1899 93.4 23.0199 93.4 25.5999C93.4 28.1799 91.52 29.3099 88.99 29.3099C86.33 29.3099 84.49 27.8299 84.49 24.2499H78.47C78.47 30.8399 82.75 34.8999 88.99 34.8999C95.23 34.8999 99.42 31.4099 99.42 25.5599C99.42 22.9099 98.57 21.1199 97.3 19.8299L86.91 21.0299C87.08 21.0899 87.25 21.1499 87.42 21.1999V21.1899Z" fill="#567BB0"/>
<path d="M120.58 9.40988V3.59988H101.73V9.40988H108.15V18.5699L114.17 17.8799V9.40988H120.58Z" fill="#284064"/>
<path d="M108.15 34.3699H114.17V17.8799L108.15 18.5699V34.3699Z" fill="#567BB0"/>
<path d="M133.68 3.59988H123.9V16.7499L129.92 16.0599V9.35988H132.93C135.64 9.35988 137.99 10.4099 137.99 14.6399V15.1299L143.96 14.4399C143.85 7.46988 139.74 3.59988 133.67 3.59988H133.68Z" fill="#284064"/>
<path d="M138 15.5199C138 19.5799 135.56 20.7099 132.94 20.7099H129.93V16.0599L123.91 16.7499V34.3599H129.93V26.4199H133.07L137.22 34.3599H143.81L138.62 25.0199C141.94 23.5399 143.99 20.3499 143.99 15.5899V14.7199C143.99 14.6199 143.99 14.5299 143.99 14.4399L138.02 15.1299V15.5099L138 15.5199Z" fill="#567BB0"/>
<path d="M161.61 23.1099H155.19L157.98 12.8299L152.24 13.4999L146.11 34.3699H152.22L153.92 28.3099H162.87L164.49 34.3699H170.64L164.2 12.1199L158.9 12.7299L161.61 23.1099Z" fill="#567BB0"/>
<path d="M155.15 3.59988L152.24 13.4999L157.98 12.8299L158.46 11.0699L158.9 12.7299L164.2 12.1199L161.74 3.59988H155.15Z" fill="#284064"/>
<path d="M176.05 34.3699H182.07V10.0599L176.05 10.7499V34.3699Z" fill="#567BB0"/>
<path d="M188.49 9.40989V9.31989L187.74 9.40989H188.49Z" fill="black"/>
<path d="M169.64 3.59988V9.40988H176.05V10.7499L182.07 10.0599V9.40988H187.74L188.49 9.31988V3.59988H169.64Z" fill="#284064"/>
<path d="M202.37 3.59988H195.78L194.29 8.64988L203.52 7.58988L202.37 3.59988Z" fill="#284064"/>
<path d="M203.52 7.58988L194.29 8.64988L186.74 34.3699H192.85L194.55 28.2999H203.5L205.12 34.3699H211.27L203.52 7.58988ZM195.82 23.1099L199.09 11.0599L202.23 23.1099H195.81H195.82Z" fill="#567BB0"/>
</svg>
